# xmcd
#
# Track frame offsets: 
#        150
#        23746
#        46712
#        70434
#        88231
#        110607
#        131248
#        148964
#        169658
#        195878
#
# Disc length: 2919 seconds
#
# Revision: 0
# Processed by: cddbd v1.5.2PL0 Copyright (c) Steve Scherf et al.
# Submitted via: ExactAudioCopy v1.0b3
#
DISCID=8d0b650a
DTITLE=Giao Linh - Chuyen Do Vi Tuyen #1
DYEAR=2001
DGENRE=
TTITLE0=Chuyen do vi tuyen
TTITLE1=Tha La xom dao
TTITLE2=Noi lai tinh xua
TTITLE3=Mai lo minh xa nhau
TTITLE4=Que huong bo lai
TTITLE5=Xa vang
TTITLE6=Khoc tham
TTITLE7=Noi long
TTITLE8=Chuyen tau hoang hon
TTITLE9=Tra lai thoi gian
EXTD=
EXTT0=
EXTT1=
EXTT2=
EXTT3=
EXTT4=
EXTT5=
EXTT6=
EXTT7=
EXTT8=
EXTT9=
PLAYORDER=
